<svg xmlns="http://www.w3.org/2000/svg" xmlns:xlink="http://www.w3.org/1999/xlink" viewBox="0 0 800.16 400.08"><defs><style>.cls-1{fill:#ccedeb;}.cls-15,.cls-2{font-size:12px;}.cls-2{font-family:DMSans-Regular, DM Sans;}.cls-3{letter-spacing:-0.02em;}.cls-4{letter-spacing:-0.01em;}.cls-5{letter-spacing:0em;}.cls-6{fill:none;stroke:#476f66;stroke-miterlimit:10;}.cls-7{fill:#476f66;}.cls-8{letter-spacing:-0.02em;}.cls-9{letter-spacing:0em;}.cls-10{letter-spacing:-0.02em;}.cls-11{letter-spacing:-0.01em;}.cls-12{letter-spacing:-0.02em;}.cls-13{letter-spacing:-0.03em;}.cls-14{letter-spacing:-0.02em;}.cls-15{font-family:MyriadPro-Regular, Myriad Pro;}.cls-16{letter-spacing:0em;}.cls-17{letter-spacing:0em;}.cls-18{letter-spacing:-0.02em;}.cls-19{letter-spacing:0em;}.cls-20{letter-spacing:0.01em;}.cls-21{letter-spacing:0em;}.cls-22{letter-spacing:-0.02em;}.cls-23{letter-spacing:-0.01em;}</style></defs><g id="Capa_2" data-name="Capa 2"><g id="Capa_3" data-name="Capa 3"><rect class="cls-1" x="0.08" y="0.04" width="800" height="400"/><image width="3334" height="1667" transform="scale(0.24)" xlink:href="../IMG_2884.PNG"/><text class="cls-2" transform="translate(565.12 159.78)">Columna <tspan class="cls-3" x="52.55" y="0">v</tspan><tspan x="58.5" y="0">er</tspan><tspan class="cls-4" x="69.68" y="0">t</tspan><tspan class="cls-5" x="74.16" y="0">ebral</tspan></text><line class="cls-6" x1="406.32" y1="156.34" x2="560.17" y2="156.34"/><circle class="cls-7" cx="406.02" cy="156.34" r="1.43"/><text class="cls-2" transform="translate(567.6 133.89)">Co<tspan class="cls-8" x="15.74" y="0">s</tspan><tspan class="cls-9" x="21.48" y="0">tillas</tspan></text><line class="cls-6" x1="458.74" y1="130.45" x2="562.64" y2="130.45"/><circle class="cls-7" cx="458.45" cy="130.45" r="1.43"/><text class="cls-2" transform="translate(549.36 204.92)">Si<tspan class="cls-10" x="9.8" y="0">s</tspan><tspan class="cls-11" x="15.54" y="0">t</tspan><tspan x="20.02" y="0">ema di</tspan><tspan class="cls-12" x="57.66" y="0">g</tspan><tspan x="64.04" y="0">e</tspan><tspan class="cls-10" x="70.87" y="0">s</tspan><tspan x="76.61" y="0">ti</tspan><tspan class="cls-3" x="84.12" y="0">v</tspan><tspan x="90.07" y="0">o</tspan></text><line class="cls-6" x1="440.51" y1="201.47" x2="544.41" y2="201.47"/><circle class="cls-7" cx="440.21" cy="201.47" r="1.43"/><text class="cls-2" transform="translate(588.9 78.38)">Cráneo</text><line class="cls-6" x1="480.05" y1="74.94" x2="583.95" y2="74.94"/><circle class="cls-7" cx="479.75" cy="74.94" r="1.43"/><text class="cls-2" transform="translate(697.38 22.62)">Pico</text><line class="cls-6" x1="588.52" y1="19.18" x2="692.42" y2="19.18"/><circle class="cls-7" cx="588.23" cy="19.18" r="1.43"/><text class="cls-2" transform="translate(150.64 335.43)"><tspan class="cls-13">R</tspan><tspan x="6.76" y="0">e</tspan><tspan class="cls-11" x="13.58" y="0">c</tspan><tspan x="20.26" y="0">trices de la cola</tspan></text><line class="cls-6" x1="367.13" y1="332.25" x2="263.23" y2="332.25"/><circle class="cls-7" cx="367.42" cy="332.25" r="1.43"/><text class="cls-2" transform="translate(306.49 34.97)">Co<tspan class="cls-14" x="15.74" y="0">r</tspan><tspan x="19.87" y="0">onilla</tspan></text><line class="cls-6" x1="463.55" y1="31.79" x2="359.65" y2="31.79"/><circle class="cls-7" cx="463.85" cy="31.79" r="1.43"/><text class="cls-2" transform="translate(647.04 35.66)">Narina o abertura nasal</text><line class="cls-6" x1="538.19" y1="32.22" x2="642.09" y2="32.22"/><circle class="cls-7" cx="537.89" cy="32.22" r="1.43"/><path class="cls-6" d="M235.74,138.67l-.91,1.6a7.62,7.62,0,0,1-10.4,2.83L76.28,58.43A7.61,7.61,0,0,1,73.45,48l.91-1.6"/><path class="cls-6" d="M340.85,175.1l-.71,1.79a7.53,7.53,0,0,1-9.77,4.27l-75.62-29.63a7.55,7.55,0,0,1-4.27-9.78l.7-1.78"/><text class="cls-15" transform="matrix(0.88, 0.48, -0.48, 0.88, 98.82, 92.07)"><tspan class="cls-16">P</tspan><tspan class="cls-17" x="6.32" y="0">lumas </tspan><tspan class="cls-18" x="38.86" y="0">P</tspan><tspan class="cls-19" x="45.05" y="0">r</tspan><tspan x="49.02" y="0">ima</tspan><tspan class="cls-19" x="67.62" y="0">r</tspan><tspan x="71.59" y="0">ias</tspan></text><text class="cls-15" transform="translate(238.66 162.2) rotate(19.52)"><tspan class="cls-16">P</tspan><tspan class="cls-17" x="6.32" y="0">lumas </tspan><tspan class="cls-20" x="38.86" y="0">S</tspan><tspan x="44.84" y="0">ecunda</tspan><tspan class="cls-21" x="82.06" y="0">r</tspan><tspan class="cls-17" x="86.03" y="0">ias</tspan></text><text class="cls-2" transform="translate(97.02 273.05)">Plumas cober<tspan class="cls-11" x="75.55" y="0">t</tspan><tspan class="cls-9" x="80.03" y="0">oras de la cola</tspan></text><line class="cls-6" x1="365.69" y1="269.88" x2="261.79" y2="269.88"/><circle class="cls-7" cx="365.99" cy="269.88" r="1.43"/><text class="cls-2" transform="translate(526.09 184.12)">Pulmones</text><line class="cls-6" x1="417.24" y1="180.67" x2="521.14" y2="180.67"/><circle class="cls-7" cx="416.94" cy="180.67" r="1.43"/><text class="cls-2" transform="translate(552.23 263.46)"><tspan class="cls-22">P</tspan><tspan class="cls-11" x="6.67" y="0">a</tspan><tspan x="13" y="0">tas</tspan></text><line class="cls-6" x1="443.38" y1="260.01" x2="547.27" y2="260.01"/><circle class="cls-7" cx="443.08" cy="260.01" r="1.43"/><text class="cls-2" transform="translate(611.57 97.71)">Ga<tspan class="cls-23" x="15.58" y="0">r</tspan><tspan class="cls-5" x="19.79" y="0">ganta</tspan></text><line class="cls-6" x1="502.72" y1="94.27" x2="606.62" y2="94.27"/><circle class="cls-7" cx="502.42" cy="94.27" r="1.43"/></g></g></svg>